<svg xmlns="http://www.w3.org/2000/svg" xml:space="preserve" id="Layer_1" x="0" y="0" style="enable-background:new 0 0 1082.81 176.87" version="1.1" viewBox="0 0 1082.81 176.87"><style>.st0{fill:#fff}.st1{fill:#281e23}.st2{fill:#3fa9f4}</style><path d="M-1460.96-630.06h-6.21v-49.61h6.21v49.61zm40.81 0h-5.34v-23.58c0-3.39-.74-5.78-2.22-7.16-1.48-1.38-3.27-2.07-5.38-2.07-2.91 0-5.35 1.16-7.32 3.49-1.97 2.33-2.96 5.4-2.96 9.2v20.13h-5.71v-36.71h5.31v6.76c2.97-5.18 6.84-7.78 11.59-7.78 2.74 0 5.07.71 6.99 2.12 1.93 1.42 3.25 3.01 3.96 4.78.72 1.77 1.07 4.96 1.07 9.59v21.23zm28.06-3.89v4.51c-2.01.27-3.76.4-5.23.4-7.1 0-10.65-3.71-10.65-11.13v-22.12h-6.5v-4.47h6.5l.25-9.23 5.31-.51v9.74h8.21v4.47h-8.21v23.07c0 3.79 1.96 5.68 5.88 5.68 1.31-.01 2.79-.14 4.44-.41zm29.22-7.04 5.31 1.08c-.97 3.14-2.86 5.74-5.67 7.79s-6.12 3.08-9.92 3.08c-5.01 0-9.07-1.76-12.17-5.29-3.1-3.53-4.65-8.15-4.65-13.88 0-5.84 1.61-10.57 4.84-14.17 3.22-3.6 7.27-5.4 12.13-5.4 4.8 0 8.66 1.66 11.58 4.98 2.92 3.32 4.41 8.29 4.49 14.89h-26.68c0 5.55 1.16 9.29 3.49 11.23s4.79 2.91 7.38 2.91c4.66.01 7.96-2.4 9.87-7.22zm-.32-11.16c-.05-2.06-.39-3.89-1.02-5.49s-1.7-2.96-3.2-4.09c-1.5-1.12-3.31-1.69-5.42-1.69-2.83 0-5.24 1.02-7.21 3.05-1.97 2.04-3.09 4.77-3.33 8.21h20.18zm20.52 22.09h-5.71v-36.71h5.02v8.58c1.77-4.05 3.54-6.67 5.32-7.87 1.78-1.2 3.6-1.8 5.47-1.8.58 0 1.33.05 2.25.15v5.45h-1.16c-3.15 0-5.76 1.17-7.85 3.53-2.09 2.35-3.2 5.43-3.34 9.26v19.41zm47.76 0h-5.34v-23.58c0-3.39-.74-5.78-2.22-7.16-1.48-1.38-3.27-2.07-5.38-2.07-2.91 0-5.35 1.16-7.32 3.49-1.97 2.33-2.96 5.4-2.96 9.2v20.13h-5.71v-36.71h5.31v6.76c2.97-5.18 6.84-7.78 11.59-7.78 2.74 0 5.07.71 6.99 2.12 1.93 1.42 3.25 3.01 3.96 4.78.72 1.77 1.07 4.96 1.07 9.59v21.23zm40.13 0h-5.64c-.22-1.16-.44-3.37-.65-6.61-2.52 5.09-6.81 7.63-12.87 7.63-4.12 0-7.28-1.09-9.48-3.28-2.21-2.19-3.31-4.8-3.31-7.86 0-3.71 1.58-6.77 4.72-9.15 3.15-2.39 8.5-3.58 16.06-3.58 1.02 0 2.64.04 4.87.15 0-2.91-.22-5.01-.67-6.31-.45-1.3-1.4-2.33-2.86-3.11s-3.37-1.16-5.74-1.16c-5.79 0-9.16 2.2-10.11 6.61l-5.27-.91c1.29-6.75 6.69-10.14 16.21-10.14 5.07 0 8.66 1.12 10.77 3.36 2.12 2.24 3.18 6.13 3.18 11.65v15.59c.02 2.59.27 4.97.79 7.12zm-6.29-18.35c-2.33-.15-4.09-.22-5.31-.22-4.51 0-8.01.74-10.5 2.23-2.5 1.48-3.75 3.64-3.75 6.49 0 1.79.67 3.33 2.02 4.59 1.34 1.26 3.29 1.9 5.83 1.9 3.44 0 6.27-1.25 8.49-3.76 2.21-2.5 3.32-5.44 3.32-8.81 0-.69-.03-1.49-.1-2.42zm33.58 14.46v4.51c-2.01.27-3.76.4-5.23.4-7.1 0-10.65-3.71-10.65-11.13v-22.12h-6.5v-4.47h6.5l.25-9.23 5.31-.51v9.74h8.21v4.47h-8.21v23.07c0 3.79 1.96 5.68 5.88 5.68 1.31-.01 2.79-.14 4.44-.41zm12.14-45.71v6.36h-6.14v-6.36h6.14zm-.18 12.9v36.71h-5.71v-36.71h5.71zm24.52 37.72c-5.04 0-8.97-1.87-11.8-5.6-2.82-3.73-4.23-8.36-4.23-13.89 0-5.85 1.59-10.51 4.76-14.01 3.18-3.49 7.12-5.24 11.85-5.24 5.06 0 9.05 1.84 11.97 5.51s4.38 8.26 4.38 13.77c0 5.73-1.57 10.4-4.72 14.02-3.15 3.63-7.22 5.44-12.21 5.44zm.44-4.72c2.91 0 5.34-1.2 7.3-3.6 1.96-2.4 2.94-6.13 2.94-11.19 0-5.09-1.03-8.78-3.09-11.07-2.06-2.29-4.47-3.43-7.23-3.43-2.83 0-5.23 1.16-7.19 3.47-1.97 2.31-2.95 5.98-2.95 10.99 0 5.31.98 9.1 2.95 11.39 1.96 2.29 4.39 3.44 7.27 3.44zm54 3.7h-5.34v-23.58c0-3.39-.74-5.78-2.22-7.16-1.48-1.38-3.27-2.07-5.38-2.07-2.91 0-5.35 1.16-7.32 3.49-1.97 2.33-2.96 5.4-2.96 9.2v20.13h-5.71v-36.71h5.31v6.76c2.97-5.18 6.84-7.78 11.59-7.78 2.74 0 5.07.71 6.99 2.12 1.93 1.42 3.25 3.01 3.96 4.78.72 1.77 1.07 4.96 1.07 9.59v21.23zm40.13 0h-5.64c-.22-1.16-.44-3.37-.65-6.61-2.52 5.09-6.81 7.63-12.87 7.63-4.12 0-7.28-1.09-9.48-3.28-2.21-2.19-3.31-4.8-3.31-7.86 0-3.71 1.58-6.77 4.72-9.15 3.15-2.39 8.5-3.58 16.06-3.58 1.02 0 2.64.04 4.87.15 0-2.91-.22-5.01-.67-6.31-.45-1.3-1.4-2.33-2.86-3.11s-3.37-1.16-5.74-1.16c-5.79 0-9.16 2.2-10.11 6.61l-5.27-.91c1.29-6.75 6.69-10.14 16.21-10.14 5.07 0 8.66 1.12 10.77 3.36s3.18 6.13 3.18 11.65v15.59c.02 2.59.28 4.97.79 7.12zm-6.29-18.35c-2.33-.15-4.09-.22-5.31-.22-4.51 0-8.01.74-10.5 2.23-2.5 1.48-3.75 3.64-3.75 6.49 0 1.79.67 3.33 2.02 4.59 1.34 1.26 3.29 1.9 5.83 1.9 3.44 0 6.27-1.25 8.49-3.76 2.21-2.5 3.32-5.44 3.32-8.81.01-.69-.03-1.49-.1-2.42zm22.64 18.35h-5.71v-49.61h5.71v49.61z" class="st0"/><path d="M-1290.46-789.94c0 .03.01.18.01.18v-.35c0 .06 0 .12-.01.17z" class="st1"/><path d="M-1306.53-753.48c-8.78 8.17-20.47 13.23-33.43 13.23-27.35 0-49.51-22.17-49.51-49.51 0-27.34 22.17-49.51 49.51-49.51 11.26 0 21.5 3.91 29.8 10.24 11.66 8.9 19.37 22.72 19.63 38.47 0 .21.06.41.06.62h.01c0-.06.01-.11.01-.17v.35h33.63l-.27-5.66c-.13-1.91-.4-3.78-.66-5.65-2.29-16.79-9.62-31.94-20.34-43.99-15.18-17.06-37.22-27.86-61.88-27.86-45.93 0-83.16 37.23-83.16 83.16s37.23 83.16 83.16 83.16c18.92 0 36.2-6.48 50.13-17.16a105.72 105.72 0 0 1-16.69-29.72z" class="st2"/><path d="M-1199.48-872.55c-13.63-1.29-26.59.85-38.3 5.47v58.64c0 34.16 15.12 46.64 33.77 46.64v-77.31c29.8 1.97 52.41 30.21 44.7 61.82-4.17 17.09-17.9 31-34.94 35.37-22.9 5.87-43.86-4.35-54.74-21.57-4.83-7.64-7.82-16.56-7.82-26.27h-33.12v.01c-.31-.01-.5-.01-.5-.01s-.01-.15-.01-.18c0 .06-.01.12-.01.18 0 9.31 1.6 18.23 4.42 26.59 11.1 32.87 42.12 56.57 78.74 56.57 46.48 0 84.06-38.14 83.14-84.83-.83-41.83-33.68-77.17-75.33-81.12zm-268.67 268.49c.85.52 2.08.95 3.38.95 1.93 0 3.06-1.02 3.06-2.49 0-1.37-.78-2.15-2.75-2.91-2.38-.85-3.86-2.08-3.86-4.14 0-2.28 1.89-3.97 4.73-3.97 1.5 0 2.58.35 3.23.72l-.52 1.54c-.48-.26-1.45-.69-2.78-.69-1.99 0-2.75 1.19-2.75 2.19 0 1.37.89 2.04 2.91 2.82 2.47.95 3.73 2.15 3.73 4.29 0 2.26-1.67 4.21-5.12 4.21-1.41 0-2.95-.41-3.73-.93l.47-1.59zm31.68-5.16c0 5.03-3.06 7.7-6.79 7.7-3.86 0-6.57-2.99-6.57-7.42 0-4.64 2.88-7.68 6.79-7.68 3.99.01 6.57 3.06 6.57 7.4zm-11.34.24c0 3.12 1.69 5.92 4.66 5.92 2.99 0 4.68-2.75 4.68-6.07 0-2.91-1.52-5.94-4.66-5.94-3.12 0-4.68 2.88-4.68 6.09zm22.03-7.4h7.87v1.58h-5.99v4.86h5.53v1.56h-5.53v6.61h-1.89v-14.61zm21.57 1.61h-4.44v-1.6h10.82v1.6h-4.47v13.01h-1.91v-13.01zm19.5 13.01-3.71-14.62h2l1.74 7.39c.43 1.82.82 3.64 1.08 5.05h.04c.24-1.45.69-3.19 1.19-5.07l1.95-7.37h1.97l1.78 7.42c.41 1.73.8 3.47 1.02 5.01h.04c.3-1.6.72-3.23 1.17-5.05l1.93-7.37h1.93l-4.14 14.62h-1.97l-1.84-7.61c-.46-1.87-.76-3.3-.95-4.77h-.04c-.26 1.45-.59 2.88-1.13 4.77l-2.08 7.61h-1.98zm25.32-4.6-1.52 4.6h-1.95l4.97-14.62h2.28l4.99 14.62h-2.02l-1.56-4.6h-5.19zm4.79-1.47-1.43-4.21c-.33-.95-.54-1.82-.76-2.67h-.04c-.22.87-.45 1.76-.74 2.65l-1.43 4.23h4.4zm14.36-8.35c.95-.19 2.32-.3 3.62-.3 2.02 0 3.32.37 4.23 1.19.74.65 1.15 1.65 1.15 2.78 0 1.93-1.21 3.21-2.75 3.73v.06c1.13.39 1.8 1.43 2.15 2.95.48 2.04.82 3.45 1.13 4.01h-1.95c-.24-.41-.56-1.67-.98-3.49-.43-2.02-1.21-2.78-2.93-2.84h-1.78v6.33h-1.89v-14.42zm1.88 6.66h1.93c2.02 0 3.3-1.11 3.3-2.78 0-1.89-1.37-2.71-3.36-2.73-.91 0-1.56.09-1.87.17v5.34zm25.59.91h-5.68v5.27h6.33v1.58h-8.22v-14.62h7.89v1.58h-6.01v4.62h5.68v1.57zm26.54 2.25-1.52 4.6h-1.95l4.97-14.62h2.28l4.99 14.62h-2.02l-1.56-4.6h-5.19zm4.79-1.47-1.43-4.21c-.33-.95-.54-1.82-.76-2.67h-.04c-.22.87-.45 1.76-.74 2.65l-1.43 4.23h4.4zm14.1 3.77c.85.52 2.08.95 3.38.95 1.93 0 3.06-1.02 3.06-2.49 0-1.37-.78-2.15-2.75-2.91-2.38-.85-3.86-2.08-3.86-4.14 0-2.28 1.89-3.97 4.73-3.97 1.5 0 2.58.35 3.23.72l-.52 1.54c-.48-.26-1.45-.69-2.78-.69-1.99 0-2.75 1.19-2.75 2.19 0 1.37.89 2.04 2.91 2.82 2.47.95 3.73 2.15 3.73 4.29 0 2.26-1.67 4.21-5.12 4.21-1.41 0-2.95-.41-3.73-.93l.47-1.59zm34.38-2.3-1.52 4.6h-1.95l4.97-14.62h2.28l4.99 14.62h-2.02l-1.56-4.6h-5.19zm4.8-1.47-1.43-4.21c-.33-.95-.54-1.82-.76-2.67h-.04c-.22.87-.45 1.76-.74 2.65l-1.43 4.23h4.4zm26.93 3.77c.85.52 2.08.95 3.38.95 1.93 0 3.06-1.02 3.06-2.49 0-1.37-.78-2.15-2.75-2.91-2.38-.85-3.86-2.08-3.86-4.14 0-2.28 1.89-3.97 4.73-3.97 1.5 0 2.58.35 3.23.72l-.52 1.54c-.48-.26-1.45-.69-2.78-.69-1.99 0-2.75 1.19-2.75 2.19 0 1.37.89 2.04 2.91 2.82 2.47.95 3.73 2.15 3.73 4.29 0 2.26-1.67 4.21-5.12 4.21-1.41 0-2.95-.41-3.73-.93l.47-1.59zm26.75-4.55h-5.68v5.27h6.33v1.58h-8.22v-14.62h7.89v1.58h-6.01v4.62h5.68v1.57zm11.34-7.57c.95-.19 2.32-.3 3.62-.3 2.02 0 3.32.37 4.23 1.19.74.65 1.15 1.65 1.15 2.78 0 1.93-1.21 3.21-2.75 3.73v.06c1.13.39 1.8 1.43 2.15 2.95.48 2.04.83 3.45 1.13 4.01h-1.95c-.24-.41-.56-1.67-.98-3.49-.43-2.02-1.21-2.78-2.93-2.84h-1.78v6.33h-1.89v-14.42zm1.89 6.66h1.93c2.02 0 3.3-1.11 3.3-2.78 0-1.89-1.37-2.71-3.36-2.73-.91 0-1.56.09-1.87.17v5.34zm21.57 7.76-4.77-14.62h2.04l2.28 7.2c.63 1.97 1.17 3.75 1.56 5.46h.04c.41-1.69 1.02-3.53 1.67-5.44l2.47-7.22h2.02l-5.23 14.62h-2.08zm19.02-14.62v14.62h-1.89v-14.62h1.89zm21.75 14.14c-.69.35-2.08.69-3.86.69-4.12 0-7.22-2.6-7.22-7.39 0-4.58 3.1-7.68 7.63-7.68 1.82 0 2.97.39 3.47.65l-.46 1.54c-.72-.35-1.73-.61-2.95-.61-3.43 0-5.7 2.19-5.7 6.03 0 3.58 2.06 5.88 5.62 5.88 1.15 0 2.32-.24 3.08-.61l.39 1.5zm18.17-6.37h-5.68v5.27h6.33v1.58h-8.22v-14.62h7.89v1.58h-6.01v4.62h5.68v1.57zM401.61 109.75h-10.55V25.49h10.55v84.26zm69.31 0h-9.07V69.69c0-5.76-1.25-9.82-3.77-12.17-2.51-2.35-5.55-3.52-9.14-3.52-4.94 0-9.08 1.98-12.43 5.93-3.35 3.95-5.03 9.16-5.03 15.62v34.2h-9.7V47.4h9.02v11.48c5.05-8.8 11.62-13.21 19.69-13.21 4.65 0 8.61 1.21 11.88 3.61 3.28 2.41 5.52 5.12 6.73 8.12s1.81 8.43 1.81 16.3v36.05zm47.66-6.61v7.65c-3.42.46-6.38.68-8.89.68-12.06 0-18.09-6.31-18.09-18.91V54.99h-11.04V47.4h11.04l.43-15.68 9.02-.86V47.4h13.94v7.59h-13.94v39.19c0 6.43 3.32 9.64 9.99 9.64 2.23 0 4.74-.23 7.54-.68zm49.63-11.97 9.01 1.84c-1.64 5.33-4.85 9.74-9.63 13.23-4.78 3.49-10.39 5.23-16.86 5.23-8.51 0-15.4-2.99-20.67-8.99-5.27-5.99-7.9-13.85-7.9-23.57 0-9.92 2.74-17.95 8.21-24.06 5.47-6.12 12.35-9.17 20.61-9.17 8.15 0 14.71 2.82 19.67 8.46 4.96 5.63 7.49 14.07 7.63 25.3h-45.32c0 9.43 1.98 15.78 5.93 19.08 3.95 3.3 8.13 4.94 12.54 4.94 7.93-.01 13.53-4.1 16.78-12.29zm-.55-18.95c-.09-3.49-.66-6.61-1.73-9.33-1.07-2.72-2.89-5.02-5.43-6.94-2.55-1.91-5.62-2.87-9.2-2.87-4.81 0-8.9 1.73-12.25 5.19-3.35 3.46-5.24 8.11-5.65 13.95h34.26zm34.86 37.53h-9.7V47.4h8.53v14.57c3-6.88 6.01-11.33 9.04-13.36 3.02-2.04 6.12-3.06 9.29-3.06.99 0 2.26.09 3.83.25v9.26h-1.98c-5.35 0-9.79 1.99-13.33 5.99-3.54 3.99-5.43 9.23-5.68 15.74v32.96zm81.11 0h-9.07V69.69c0-5.76-1.25-9.82-3.77-12.17-2.51-2.35-5.55-3.52-9.14-3.52-4.94 0-9.08 1.98-12.43 5.93-3.35 3.95-5.03 9.16-5.03 15.62v34.2h-9.7V47.4h9.02v11.48c5.05-8.8 11.62-13.21 19.69-13.21 4.65 0 8.61 1.21 11.88 3.61 3.28 2.41 5.52 5.12 6.73 8.12s1.81 8.43 1.81 16.3v36.05zm68.16 0h-9.57c-.37-1.98-.74-5.72-1.11-11.23-4.28 8.64-11.57 12.96-21.85 12.96-7 0-12.36-1.85-16.11-5.56-3.75-3.71-5.62-8.16-5.62-13.35 0-6.31 2.68-11.49 8.02-15.55 5.35-4.06 14.44-6.09 27.28-6.09 1.73 0 4.48.08 8.27.25 0-4.94-.38-8.51-1.14-10.71-.76-2.2-2.38-3.96-4.85-5.28-2.47-1.32-5.72-1.98-9.74-1.98-9.84 0-15.56 3.74-17.17 11.23l-8.95-1.55c2.18-11.47 11.36-17.22 27.53-17.22 8.6 0 14.7 1.9 18.3 5.71 3.6 3.81 5.4 10.41 5.4 19.79v26.48c.01 4.4.44 8.43 1.31 12.1zm-10.68-31.17c-3.95-.25-6.95-.38-9.01-.38-7.65 0-13.6 1.26-17.83 3.78-4.24 2.52-6.36 6.18-6.36 11.02 0 3.05 1.14 5.65 3.43 7.8 2.28 2.15 5.58 3.22 9.9 3.22 5.84 0 10.65-2.13 14.42-6.38 3.76-4.24 5.64-9.24 5.64-14.97-.01-1.17-.07-2.52-.19-4.09zm57.03 24.56v7.65c-3.42.46-6.38.68-8.89.68-12.06 0-18.09-6.31-18.09-18.91V54.99h-11.04V47.4h11.04l.43-15.68 9.02-.86V47.4h13.94v7.59h-13.94v39.19c0 6.43 3.32 9.64 9.99 9.64 2.22 0 4.74-.23 7.54-.68zm20.63-77.65v10.8h-10.44v-10.8h10.44zm-.31 21.91v62.34h-9.7V47.4h9.7zm41.66 64.08c-8.57 0-15.24-3.17-20.04-9.52s-7.19-14.21-7.19-23.6c0-9.93 2.7-17.85 8.08-23.79 5.39-5.94 12.1-8.9 20.13-8.9 8.59 0 15.37 3.12 20.33 9.36 4.96 6.24 7.44 14.04 7.44 23.38 0 9.72-2.67 17.66-8.02 23.82-5.35 6.17-12.26 9.25-20.73 9.25zm.74-8.03c4.94 0 9.07-2.04 12.4-6.11 3.33-4.08 5-10.42 5-19.01 0-8.64-1.75-14.91-5.24-18.8-3.49-3.88-7.6-5.83-12.29-5.83-4.81 0-8.89 1.97-12.21 5.9-3.34 3.93-5 10.15-5 18.67 0 9.01 1.66 15.46 5 19.35 3.32 3.88 7.44 5.83 12.34 5.83zm91.71 6.3h-9.07V69.69c0-5.76-1.25-9.82-3.77-12.17-2.51-2.35-5.55-3.52-9.14-3.52-4.94 0-9.08 1.98-12.43 5.93s-5.03 9.16-5.03 15.62v34.2h-9.7V47.4h9.02v11.48c5.05-8.8 11.62-13.21 19.69-13.21 4.65 0 8.61 1.21 11.88 3.61 3.28 2.41 5.52 5.12 6.73 8.12 1.22 3 1.81 8.43 1.81 16.3v36.05zm68.17 0h-9.57c-.37-1.98-.74-5.72-1.11-11.23-4.28 8.64-11.57 12.96-21.85 12.96-7 0-12.36-1.85-16.11-5.56-3.75-3.71-5.62-8.16-5.62-13.35 0-6.31 2.68-11.49 8.02-15.55 5.35-4.06 14.44-6.09 27.28-6.09 1.73 0 4.48.08 8.27.25 0-4.94-.38-8.51-1.14-10.71-.76-2.2-2.38-3.96-4.85-5.28-2.47-1.32-5.72-1.98-9.74-1.98-9.84 0-15.56 3.74-17.17 11.23l-8.95-1.55c2.18-11.47 11.36-17.22 27.53-17.22 8.6 0 14.7 1.9 18.3 5.71 3.6 3.81 5.4 10.41 5.4 19.79v26.48c0 4.4.43 8.43 1.31 12.1zm-10.69-31.17c-3.95-.25-6.95-.38-9.01-.38-7.65 0-13.6 1.26-17.83 3.78-4.24 2.52-6.36 6.18-6.36 11.02 0 3.05 1.14 5.65 3.43 7.8 2.28 2.15 5.58 3.22 9.9 3.22 5.84 0 10.65-2.13 14.42-6.38 3.76-4.24 5.64-9.24 5.64-14.97-.01-1.17-.06-2.52-.19-4.09zm38.45 31.17h-9.7V25.49h9.7v84.26zM333.02 20.7h4.86v136.39h-4.86z" class="st0"/><path d="M146.8 96.86c0 .03.01.15.01.15v-.3c0 .05-.01.1-.01.15z" class="st1"/><path d="M132.97 128.21c-7.55 7.03-17.6 11.38-28.75 11.38-23.52 0-42.58-19.06-42.58-42.58s19.06-42.58 42.58-42.58c9.68 0 18.49 3.36 25.63 8.81 10.03 7.65 16.66 19.54 16.88 33.08 0 .18.06.35.06.54h.01c0-.05.01-.1.01-.15v.3h28.92l-.23-4.86c-.11-1.64-.34-3.25-.56-4.86-1.97-14.44-8.27-27.47-17.49-37.83-13.06-14.68-32.01-23.96-53.22-23.96-39.5 0-71.52 32.02-71.52 71.52 0 39.5 32.02 71.52 71.52 71.52 16.27 0 31.13-5.57 43.11-14.76a90.692 90.692 0 0 1-14.37-25.57z" class="st2"/><path d="M225.04 25.81c-11.72-1.11-22.87.73-32.94 4.71v50.43c0 29.38 13 40.11 29.05 40.11V54.58c25.63 1.69 45.08 25.98 38.44 53.17-3.59 14.7-15.39 26.66-30.05 30.42-19.69 5.05-37.72-3.74-47.08-18.55-4.15-6.57-6.72-14.24-6.72-22.59h-28.49v.01c-.26-.01-.43-.01-.43-.01s0-.13-.01-.15c0 .05-.01.1-.01.15 0 8.01 1.37 15.68 3.8 22.87 9.55 28.27 36.23 48.65 67.72 48.65 39.98 0 72.29-32.8 71.51-72.96-.72-35.98-28.97-66.38-64.79-69.78zm166.82 129.61c1.43.88 3.52 1.61 5.72 1.61 3.27 0 5.17-1.72 5.17-4.22 0-2.31-1.32-3.63-4.66-4.92-4.04-1.43-6.53-3.52-6.53-7.01 0-3.85 3.19-6.71 8-6.71 2.53 0 4.36.59 5.47 1.21l-.88 2.6a9.882 9.882 0 0 0-4.7-1.17c-3.37 0-4.66 2.02-4.66 3.71 0 2.31 1.51 3.45 4.92 4.77 4.18 1.61 6.31 3.63 6.31 7.26 0 3.82-2.82 7.12-8.66 7.12-2.38 0-4.99-.7-6.31-1.58l.81-2.67zm53.61-8.74c0 8.51-5.17 13.03-11.48 13.03-6.53 0-11.12-5.06-11.12-12.55 0-7.85 4.88-12.99 11.49-12.99 6.74 0 11.11 5.18 11.11 12.51zm-19.19.41c0 5.28 2.86 10.02 7.89 10.02 5.06 0 7.92-4.66 7.92-10.27 0-4.92-2.57-10.05-7.89-10.05-5.28-.01-7.92 4.87-7.92 10.3zm37.27-12.51h13.32v2.68h-10.13v8.22h9.36v2.64h-9.36v11.19h-3.19v-24.73zm36.51 2.71h-7.52v-2.71h18.31v2.71h-7.56v22.02h-3.23v-22.02zm32.99 22.02-6.28-24.73h3.38l2.94 12.51c.73 3.08 1.39 6.16 1.83 8.55h.07c.41-2.46 1.17-5.39 2.02-8.59l3.3-12.48h3.34l3.01 12.55c.7 2.93 1.36 5.87 1.73 8.48h.07c.51-2.71 1.21-5.47 1.98-8.55l3.26-12.48h3.27l-7.01 24.73h-3.34l-3.12-12.88c-.77-3.16-1.28-5.58-1.62-8.07h-.07c-.44 2.46-.99 4.88-1.91 8.07l-3.52 12.88h-3.33zm42.85-7.78-2.57 7.78h-3.3l8.4-24.73h3.85l8.44 24.73h-3.41l-2.64-7.78h-8.77zm8.11-2.5-2.42-7.12c-.55-1.61-.92-3.08-1.28-4.51h-.08c-.37 1.47-.77 2.97-1.25 4.48l-2.42 7.15h7.45zm24.29-14.12c1.62-.33 3.93-.51 6.13-.51 3.41 0 5.61.62 7.15 2.02 1.25 1.1 1.94 2.79 1.94 4.7 0 3.27-2.05 5.43-4.66 6.31v.11c1.91.66 3.05 2.42 3.63 4.99.81 3.45 1.4 5.83 1.91 6.79h-3.3c-.4-.7-.95-2.82-1.65-5.91-.73-3.41-2.06-4.7-4.95-4.81h-3.01v10.71h-3.19v-24.4zm3.19 11.26h3.27c3.41 0 5.58-1.87 5.58-4.7 0-3.19-2.31-4.59-5.69-4.62-1.54 0-2.64.15-3.16.29v9.03zm43.29 1.54h-9.61v8.92h10.71v2.68h-13.91v-24.73h13.36v2.68h-10.16v7.82h9.61v2.63zm44.91 3.82-2.57 7.78h-3.3l8.4-24.73h3.85l8.44 24.73h-3.41l-2.64-7.78h-8.77zm8.11-2.5-2.42-7.12c-.55-1.61-.92-3.08-1.28-4.51h-.08c-.37 1.47-.77 2.97-1.25 4.48l-2.42 7.15h7.45zm23.85 6.39c1.43.88 3.52 1.61 5.72 1.61 3.27 0 5.17-1.72 5.17-4.22 0-2.31-1.32-3.63-4.66-4.92-4.04-1.43-6.53-3.52-6.53-7.01 0-3.85 3.19-6.71 8-6.71 2.53 0 4.36.59 5.47 1.21l-.88 2.6a9.882 9.882 0 0 0-4.7-1.17c-3.37 0-4.66 2.02-4.66 3.71 0 2.31 1.51 3.45 4.92 4.77 4.18 1.61 6.31 3.63 6.31 7.26 0 3.82-2.82 7.12-8.66 7.12-2.38 0-4.99-.7-6.31-1.58l.81-2.67zm58.19-3.89-2.57 7.78h-3.3l8.4-24.73h3.85l8.44 24.73h-3.41l-2.64-7.78h-8.77zm8.11-2.5-2.42-7.12c-.55-1.61-.92-3.08-1.28-4.51h-.08c-.37 1.47-.77 2.97-1.25 4.48l-2.42 7.15h7.45zm45.57 6.39c1.43.88 3.52 1.61 5.72 1.61 3.27 0 5.17-1.72 5.17-4.22 0-2.31-1.32-3.63-4.66-4.92-4.04-1.43-6.53-3.52-6.53-7.01 0-3.85 3.19-6.71 8-6.71 2.53 0 4.36.59 5.47 1.21l-.88 2.6a9.882 9.882 0 0 0-4.7-1.17c-3.37 0-4.66 2.02-4.66 3.71 0 2.31 1.5 3.45 4.92 4.77 4.18 1.61 6.31 3.63 6.31 7.26 0 3.82-2.82 7.12-8.66 7.12-2.38 0-4.99-.7-6.31-1.58l.81-2.67zm45.27-7.71h-9.61v8.92h10.71v2.68h-13.91v-24.73h13.36v2.68h-10.16v7.82h9.61v2.63zm19.19-12.8c1.62-.33 3.93-.51 6.13-.51 3.41 0 5.61.62 7.15 2.02 1.25 1.1 1.94 2.79 1.94 4.7 0 3.27-2.05 5.43-4.66 6.31v.11c1.91.66 3.05 2.42 3.63 4.99.81 3.45 1.4 5.83 1.91 6.79h-3.3c-.4-.7-.95-2.82-1.65-5.91-.73-3.41-2.06-4.7-4.95-4.81h-3.01v10.71h-3.19v-24.4zm3.19 11.26h3.27c3.41 0 5.58-1.87 5.58-4.7 0-3.19-2.31-4.59-5.69-4.62-1.54 0-2.64.15-3.16.29v9.03zm36.51 13.14-8.07-24.73h3.45l3.85 12.18c1.06 3.34 1.98 6.35 2.64 9.25h.07c.7-2.86 1.72-5.98 2.82-9.21l4.18-12.22h3.41l-8.84 24.73h-3.51zm32.18-24.73v24.73h-3.19v-24.73h3.19zm36.8 23.92c-1.17.59-3.52 1.17-6.53 1.17-6.97 0-12.22-4.4-12.22-12.51 0-7.74 5.25-12.99 12.92-12.99 3.08 0 5.03.66 5.87 1.1l-.77 2.6c-1.21-.59-2.93-1.03-4.99-1.03-5.8 0-9.65 3.71-9.65 10.2 0 6.05 3.49 9.94 9.5 9.94 1.95 0 3.93-.4 5.21-1.03l.66 2.55zm30.74-10.79h-9.61v8.92h10.71v2.68h-13.91v-24.73h13.36v2.68h-10.16v7.82h9.61v2.63z" class="st0"/></svg>